<?xml version="1.0" encoding="UTF-8" standalone="no"?>
<!-- Created with Inkscape (http://www.inkscape.org/) -->

<svg
   xmlns:dc="http://purl.org/dc/elements/1.1/"
   xmlns:cc="http://creativecommons.org/ns#"
   xmlns:rdf="http://www.w3.org/1999/02/22-rdf-syntax-ns#"
   xmlns:svg="http://www.w3.org/2000/svg"
   xmlns="http://www.w3.org/2000/svg"
   xmlns:xlink="http://www.w3.org/1999/xlink"
   xmlns:sodipodi="http://sodipodi.sourceforge.net/DTD/sodipodi-0.dtd"
   xmlns:inkscape="http://www.inkscape.org/namespaces/inkscape"
   width="1052.3622"
   height="744.09448"
   id="svg2"
   version="1.1"
   inkscape:version="0.48.4 r9939"
   sodipodi:docname="chinese_cat.svg">
  <defs
     id="defs4" />
  <sodipodi:namedview
     id="base"
     pagecolor="#ffffff"
     bordercolor="#666666"
     borderopacity="1.0"
     inkscape:pageopacity="0.0"
     inkscape:pageshadow="2"
     inkscape:zoom="2.1489681"
     inkscape:cx="235.4446"
     inkscape:cy="619.39295"
     inkscape:document-units="px"
     inkscape:current-layer="layer1"
     showgrid="false"
     inkscape:window-width="1794"
     inkscape:window-height="1058"
     inkscape:window-x="118"
     inkscape:window-y="-8"
     inkscape:window-maximized="1" />
  <metadata
     id="metadata7">
    <rdf:RDF>
      <cc:Work
         rdf:about="">
        <dc:format>image/svg+xml</dc:format>
        <dc:type
           rdf:resource="http://purl.org/dc/dcmitype/StillImage" />
      </cc:Work>
    </rdf:RDF>
  </metadata>
  <g
     inkscape:label="Layer 1"
     inkscape:groupmode="layer"
     id="layer1"
     transform="translate(0,-308.2677)">
    <image
       y="309.54791"
       x="0.91233641"
       id="image2993"
       xlink:href="file:///C:/Users/Ernesto%20Guevara/Pictures/cats/funny-cats_93.jpg"
       height="387"
       width="480"
       sodipodi:insensitive="true" />
    <path
       id="cat_path"
       transform="translate(0,308.2677)"
       style="fill:none;stroke:#000000;stroke-width:1px;stroke-linecap:butt;stroke-linejoin:miter;stroke-opacity:1"
       d="m 177.2944,61.441254 c 1.54143,6.055334 2.78041,12.302428 5.11873,18.148245 m -15.82154,-4.653396 c -0.89954,-1.3493 -1.49382,-2.872903 -1.39602,-4.653396 9.54375,2.049052 7.91077,1.574727 7.91077,8.841453 m -38.15785,-6.049415 c 0.6819,3.565411 0.68325,7.138958 1.39602,10.702811 m -5.58408,-26.989698 c -0.51633,5.244013 0.66732,10.255274 1.39602,15.356207 M 125.6417,54.46116 c -0.79954,4.170711 -1.86136,8.301967 -1.86136,12.56417 m 21.87096,16.286886 c 2.14886,6.741836 3.95201,13.474549 5.11874,20.474944 M 138.20587,89.361632 c -0.18394,5.594933 -0.46534,11.145888 -0.46534,16.752228 m -14.89087,-2.79204 c -0.37055,5.00359 0.0304,9.64597 1.39602,14.42553 m 73.989,183.80915 c -1.8025,4.47836 -2.02122,8.98706 0,13.02951 m -13.96019,-12.56417 c -1.73098,5.03385 -1.43591,10.62303 0.93068,15.35621 m -14.42553,-12.56417 c 0.81408,4.86937 0.38927,10.12337 3.25738,14.42553 m -27.45504,-1.86136 c -0.7609,-3.04362 -1.0558,-6.06808 -1.39602,-9.3068 22.7318,-4.93928 7.52983,2.129 15.35621,12.56417 m -25.12834,-9.30679 c -0.26943,4.19122 0.0253,9.39532 0.93068,12.56417 m 125.17636,17.68291 c 0.87183,3.74925 1.86136,7.34695 1.86136,11.16815 M 248.9567,325.28882 c 1.1464,7.30913 -1.07988,13.81099 4.6534,19.54427 m -13.49485,-26.05902 c 0.94091,4.04119 1.53065,8.11861 2.32669,12.09883 m -10.23747,-25.12834 c -1.35759,6.03703 -0.0139,11.59189 1.86136,17.21756 m -10.70281,-24.663 c 0.0743,6.62523 -0.0619,14.23176 4.18806,19.54427 M 214.98691,296.9031 c 1.37734,4.66881 0.61364,9.96987 3.25737,13.49485 m -12.56417,-35.36581 c -0.42669,5.35809 0.12186,10.25957 1.39602,15.35621 m -10.23747,-10.23747 c -0.20343,4.59843 -0.22543,8.85593 1.86136,13.02951 m -12.09883,-12.09883 c 1.08438,4.12851 0.78625,10.45141 4.6534,13.02951 m -14.89087,-14.42553 c 0.0317,6.76172 2.04661,12.34583 6.04941,17.6829 m -16.28688,-17.6829 c 1.1661,6.17023 2.63996,13.34277 6.98009,17.6829 m -13.02951,-14.89086 c -0.21283,4.98935 1.08209,9.60961 3.25738,13.96018 m -9.77213,-13.49484 c -1.43356,5.2174 0.69043,9.99722 4.18805,13.49484 m -13.02951,-13.96018 c -0.39419,4.31023 -0.21969,7.39815 1.39602,11.16815 M 133.08713,281.5469 c 0.69091,7.12283 5.10897,12.08417 8.84146,17.6829 M 120.9883,280.61622 c -0.34715,5.21905 2.02923,10.05191 4.6534,14.42553 M 107.49345,274.5668 c 4.47589,5.38207 3.61238,13.27417 6.51476,19.07893 m 96.3253,-42.34591 c 1.72837,4.80104 2.48176,9.92704 3.72272,14.89087 M 195.90798,254.5572 c 1.46058,4.47372 1.32311,9.67492 4.18806,13.49485 m -16.75223,-16.28689 c 0.005,6.5406 0.3766,16.70786 6.9801,20.0096 m -15.82155,-18.14824 c -0.27243,5.84686 -0.50918,11.41992 2.79204,15.82155 M 165.19557,252.2305 c -0.32689,5.79121 0.51277,11.43394 2.79203,16.75223 m -11.63349,-17.21757 c 0.40052,5.45815 -1.89831,13.78044 3.25738,17.21757 m -12.09883,-18.14825 c -0.81515,5.68686 -1.7441,15.43438 3.72272,19.07893 m -18.61359,-18.14825 c -0.48901,6.5716 1.88398,12.74944 5.58408,17.68291 M 122.38432,249.9038 c -0.79363,6.20284 -0.91833,17.13191 4.6534,20.47495 m -15.35621,-25.12834 c 0.49649,6.77653 -1.654,14.96924 2.3267,20.94028 m 82.36511,-36.76183 c 0.49213,6.8318 0.93068,13.58436 0.93068,20.47494 m -7.91077,-20.47494 c 0.12795,4.5745 -1.00637,10.62712 1.86136,13.49485 m -14.42553,-13.96019 c 0.5809,4.71906 1.23986,9.35676 3.72271,13.49485 M 164.73023,227.5675 c 0.7988,6.6335 2.18821,14.86133 6.04941,20.0096 m -16.28688,-22.3363 c 0.5733,6.53751 0.47138,14.12538 3.72271,19.54427 M 147.978,224.31012 c -0.57186,6.5065 -1.29511,15.19922 3.25738,18.61359 m -18.14825,-18.14825 c -0.49504,6.37203 1.40034,12.3423 3.72272,18.14825 m -11.63349,-21.40563 c 0.30769,6.5351 -1.36252,14.17114 1.86136,19.54427 m -13.02951,-26.52436 c 0.77518,7.09267 0.46534,14.27237 0.46534,21.40562 m 86.55317,-27.92037 c 0.12834,6.65043 -0.37785,13.46695 0.93068,20.0096 m -13.02951,-26.9897 c 1.99089,5.5813 -0.54102,12.85642 4.65339,16.75223 m -17.6829,-20.47495 c 0.007,5.79626 0.70497,12.18799 3.72271,17.21757 m -15.3562,-18.14824 c 0.84388,5.40458 0.16664,10.93862 0.93068,16.28688 m -9.77214,-19.07892 c 1.47008,5.95093 -0.87904,12.46059 1.39602,18.14824 m -12.56417,-20.94028 c 1.50777,6.66154 0.47049,13.9962 1.39602,20.47494 m -10.23747,-22.80164 c 0.97004,5.41123 -0.3974,14.22683 2.79204,15.82155 M 127.9684,186.61761 c 0.15147,4.77503 -0.42629,9.96738 0.46534,14.42553 m -8.84146,-13.96019 c 0.0983,4.60107 -1.11556,9.02009 -1.86136,13.49485 m 39.08853,-81.43443 c 0,4.49828 0,8.99656 0,13.49485 m -26.05902,-17.21757 c 0,-2.3267 0,-4.6534 0,-6.98009 19.88779,0.13837 12.40345,0.75312 15.35621,12.56417 m 35.83115,17.21756 c 0.45915,5.62694 2.3267,11.09384 2.3267,16.75223 m -13.49485,-13.96019 c 0.60413,5.75623 -0.46534,11.52835 -0.46534,17.21757 m 25.59368,-2.3267 c 0.84974,6.1139 0.46534,12.42286 0.46534,18.61358 m -18.14824,-9.30679 c 0.9099,4.71724 -0.23867,9.74814 0.93068,14.42553 m -13.49485,-13.02951 c 0.2099,5.52589 -0.93068,10.77064 -0.93068,16.28689 m -12.56417,-19.07893 c 0.58734,5.61411 -0.93843,11.12166 0,16.75223 m -14.42553,-18.14825 c -1.89475,6.00289 -2.74185,11.98483 -1.86136,18.14825 m -3.72272,-24.19766 c -4.08808,4.93787 -4.18805,10.23481 -4.18805,16.28688 m -8.84146,-14.89086 c -0.0711,5.70895 -2.79203,11.08344 -2.79203,16.75222 m 44.20726,-29.31639 c -0.6398,4.85697 -1.39602,9.53293 -1.39602,14.42552 m -7.44543,-31.17775 c 1.20249,6.3078 -0.32233,12.81391 0.93068,19.07892 m -17.68291,-25.59367 c 0.23179,5.38498 2.02847,10.73881 3.72272,15.82154 M 123.315,124.72744 c 0.16347,5.06356 -0.27732,10.52421 0.93068,15.35621 m -9.77213,-24.663 c 0.73813,5.38275 0.11109,10.57076 1.86136,15.82155 m -9.3068,-27.45504 c 0.0692,4.85311 1.54923,9.29537 2.3267,13.96019 M 99.58268,88.430952 c -0.265464,5.894212 1.84054,11.508565 2.79204,17.217568 M 92.602585,79.589499 c 1.912963,3.363164 1.396019,6.967654 1.396019,10.702812 M 85.622491,64.233292 c 1.5298,4.124592 0.737421,8.454937 2.792038,12.56417 M 77.711717,48.877084 c -0.132467,4.378211 2.70636,7.568063 3.722717,11.633491 M 68.870264,41.43165 c 2.510985,3.932951 3.308639,8.167082 4.188057,12.56417 m 148.443339,92.60259 c -3.73335,5.3936 -6.59531,11.28898 -10.23747,16.75222 m 6.98009,-22.3363 c -3.77621,4.81565 -6.76717,9.76905 -9.30679,15.35621 m 27.92038,-57.236776 c 0.55359,5.996256 -2.17926,10.926256 -4.6534,16.286886 m 4.18806,-24.19766 c -3.68085,4.849526 -4.77977,10.95555 -7.44544,16.28689 m 27.45504,-47.464645 c -0.38315,2.010426 -1.43034,3.79136 -2.3267,5.584076 M 238.25389,78.65882 c 1.02846,-2.742554 1.2127,-6.170027 4.65339,-6.980094 9.44713,-14.861497 5.37447,-7.328048 4.18806,-1.396019 m -22.3363,48.395323 c 0.20764,3.69839 -0.41629,7.10207 -0.93068,10.70281 m -11.16815,-7.91077 c -0.82564,5.32989 -1.86136,10.40376 -1.86136,15.82154 m -11.63349,-20.94028 c -0.0256,6.55945 -3.32789,13.67815 -1.86136,19.54426 m -10.70281,-21.87096 c -1.29438,5.84934 -4.18806,11.26423 -4.18806,17.21757 m -3.72271,-36.761833 c 0.29796,5.589443 -0.0456,10.885163 -1.39602,16.286883 m -6.9801,-29.781732 c -0.71669,4.260581 -0.67512,8.412358 -1.86136,12.56417 m -9.30679,-17.682906 c 0.60636,4.450571 -2.79204,7.689107 -2.79204,12.098831 M 150.3047,72.609405 c -3.13645,2.962238 -4.43501,5.669764 -5.11874,9.772132 M 129.36442,63.302613 c -2.54115,0.501457 -2.91355,2.305999 -2.3267,4.653396 1.48403,5.936119 16.12879,0.567755 4.65339,-3.257377 -0.85804,-0.286015 -1.45704,-1.644493 -2.32669,-1.396019 -0.3847,0.109912 -3.36,4.3933 -3.72272,5.118736 m 21.87096,-5.118736 c 8.68733,-3.507959 12.90856,0.07448 17.68291,3.257377 1.94766,-3.521249 7.62904,-22.61803 13.49485,-16.752226 5.20884,5.208843 1.80665,17.162862 4.18805,19.544264 9.5279,9.5279 1.29506,33.936132 16.75223,39.088532 28.68872,9.5629 20.93082,-39.546776 37.69251,-52.118042 25.40757,-19.055676 48.26682,-3.792163 23.73232,12.56417 -20.5391,13.692733 -12.14017,46.192632 -19.07893,67.008902 -4.25132,12.75397 -13.55532,25.65416 -22.80164,34.90048 -5.02835,5.02835 -12.56419,11.1682 -14.89087,18.14824 -4.98808,14.96427 6.85317,51.86419 12.56417,63.28619 3.41544,6.83086 0.17767,27.63271 5.11874,32.57377 5.06194,5.06194 16.58011,13.61595 20.0096,20.47495 3.49847,6.99693 12.40156,13.16961 16.28689,20.94028 5.65849,11.31699 9.14117,23.94922 16.75223,35.36581 1.43758,2.15638 9.60413,9.94014 6.51475,13.02951 -1.87975,1.87976 -9.35294,2.34208 -12.09883,3.25738 -2.15642,0.7188 -2.40718,1.94184 -3.72271,3.25738 -0.62374,0.62373 -5.21182,0 -6.04942,0 -17.81651,0 -12.53703,-17.65577 -20.47494,-25.59368 -3.31841,-3.31841 -9.17002,-6.37798 -12.56417,-9.77214 -10.01343,-10.01342 -0.46646,-15.20146 -21.87097,-22.3363 -31.41437,-10.47146 -57.94221,33.26931 -97.72132,20.00961 -1.75556,-0.58519 -6.51195,-0.92509 -7.44543,-2.79204 -8.99225,-17.9845 21.66522,-8.22423 26.05902,-21.40562 2.18604,-6.55813 -8.97411,-8.42034 -13.02951,-9.77214 -10.19095,-3.39698 -15.407132,-48.1407 -13.49485,-57.70211 3.9194,-19.59702 -2.053715,-41.38412 1.86136,-60.95949 2.11509,-10.57545 16.73455,-36.79719 12.09883,-46.06862 -8.4146,-16.8292 -21.469532,-36.88965 -30.247077,-54.444739 -7.685444,-15.370887 -31.71279,-37.483423 -25.12834,-57.236774 2.154174,-6.462522 11.911265,1.302236 14.890868,2.792038 14.869737,7.434868 20.084221,31.252372 32.108439,43.276585 1.64268,1.642684 5.07187,4.094326 6.04941,6.049415 8.04789,16.095785 17.71966,5.620827 13.49485,1.396019 -4.03323,-4.03323 -13.17282,-30.873432 -5.11874,-34.900472 3.19314,-1.596569 6.15107,-3.824371 8.37612,-6.049415 0.77898,-0.778986 3.47223,-0.46534 4.65339,-0.46534 11.53827,0 3.17182,13.409285 8.84146,19.078925 2.54143,2.541435 9.91142,-2.822642 10.23747,-3.257377 M 125.17636,46.085047 c 13.81064,-9.309884 13.2412,13.635974 18.61358,17.217566 m -20.94028,18.613585 c -0.3381,-10.158159 -6.04941,-11.431882 -6.04941,-20.474944"
       inkscape:connector-curvature="0" />
  </g>
</svg>
